<svg width="451" height="185" viewBox="0 0 451 185" fill="none" xmlns="http://www.w3.org/2000/svg">
<rect width="451" height="185" rx="8" fill="#0D1117"/>
<path d="M35.0654 28.834C34.9365 30.1992 34.4326 31.2656 33.5537 32.0332C32.6748 32.7949 31.5059 33.1758 30.0469 33.1758C29.0273 33.1758 28.1279 32.9355 27.3486 32.4551C26.5752 31.9688 25.9775 31.2803 25.5557 30.3896C25.1338 29.499 24.9141 28.4648 24.8965 27.2871V26.0918C24.8965 24.8848 25.1104 23.8213 25.5381 22.9014C25.9658 21.9814 26.5781 21.2725 27.375 20.7744C28.1777 20.2764 29.1035 20.0273 30.1523 20.0273C31.5645 20.0273 32.7012 20.4111 33.5625 21.1787C34.4238 21.9463 34.9248 23.0303 35.0654 24.4307H32.8506C32.7451 23.5107 32.4756 22.8486 32.042 22.4443C31.6143 22.0342 30.9844 21.8291 30.1523 21.8291C29.1855 21.8291 28.4414 22.1836 27.9199 22.8926C27.4043 23.5957 27.1406 24.6299 27.1289 25.9951V27.1289C27.1289 28.5117 27.375 29.5664 27.8672 30.293C28.3652 31.0195 29.0918 31.3828 30.0469 31.3828C30.9199 31.3828 31.5762 31.1865 32.0156 30.7939C32.4551 30.4014 32.7334 29.748 32.8506 28.834H35.0654ZM36.4541 28.1572C36.4541 27.2256 36.6387 26.3877 37.0078 25.6436C37.377 24.8936 37.8955 24.3193 38.5635 23.9209C39.2314 23.5166 39.999 23.3145 40.8662 23.3145C42.1494 23.3145 43.1895 23.7275 43.9863 24.5537C44.7891 25.3799 45.2227 26.4756 45.2871 27.8408L45.2959 28.3418C45.2959 29.2793 45.1143 30.1172 44.751 30.8555C44.3936 31.5938 43.8779 32.165 43.2041 32.5693C42.5361 32.9736 41.7627 33.1758 40.8838 33.1758C39.542 33.1758 38.4668 32.7305 37.6582 31.8398C36.8555 30.9434 36.4541 29.751 36.4541 28.2627V28.1572ZM38.5898 28.3418C38.5898 29.3203 38.792 30.0879 39.1963 30.6445C39.6006 31.1953 40.1631 31.4707 40.8838 31.4707C41.6045 31.4707 42.1641 31.1895 42.5625 30.627C42.9668 30.0645 43.1689 29.2412 43.1689 28.1572C43.1689 27.1963 42.9609 26.4346 42.5449 25.8721C42.1348 25.3096 41.5752 25.0283 40.8662 25.0283C40.1689 25.0283 39.6152 25.3066 39.2051 25.8633C38.7949 26.4141 38.5898 27.2402 38.5898 28.3418ZM49.084 23.4902L49.1455 24.5889C49.8486 23.7393 50.7715 23.3145 51.9141 23.3145C53.8945 23.3145 54.9023 24.4482 54.9375 26.7158V33H52.8018V26.8389C52.8018 26.2354 52.6699 25.79 52.4062 25.5029C52.1484 25.21 51.7236 25.0635 51.1318 25.0635C50.2705 25.0635 49.6289 25.4531 49.207 26.2324V33H47.0713V23.4902H49.084ZM59.2266 24.5273C59.9238 23.7188 60.8057 23.3145 61.8721 23.3145C63.8994 23.3145 64.9277 24.4717 64.957 26.7861V33H62.8213V26.8652C62.8213 26.209 62.6777 25.7461 62.3906 25.4766C62.1094 25.2012 61.6934 25.0635 61.1426 25.0635C60.2871 25.0635 59.6484 25.4443 59.2266 26.2061V33H57.0908V19.5H59.2266V24.5273ZM71.3115 33.1758C69.958 33.1758 68.8594 32.751 68.0156 31.9014C67.1777 31.0459 66.7588 29.9092 66.7588 28.4912V28.2275C66.7588 27.2783 66.9404 26.4316 67.3037 25.6875C67.6729 24.9375 68.1885 24.3545 68.8506 23.9385C69.5127 23.5225 70.251 23.3145 71.0654 23.3145C72.3604 23.3145 73.3594 23.7275 74.0625 24.5537C74.7715 25.3799 75.126 26.5488 75.126 28.0605V28.9219H68.9121C68.9766 29.707 69.2373 30.3281 69.6943 30.7852C70.1572 31.2422 70.7373 31.4707 71.4346 31.4707C72.4131 31.4707 73.21 31.0752 73.8252 30.2842L74.9766 31.3828C74.5957 31.9512 74.0859 32.3936 73.4473 32.71C72.8145 33.0205 72.1025 33.1758 71.3115 33.1758ZM71.0566 25.0283C70.4707 25.0283 69.9961 25.2334 69.6328 25.6436C69.2754 26.0537 69.0469 26.625 68.9473 27.3574H73.0166V27.1992C72.9697 26.4844 72.7793 25.9453 72.4453 25.582C72.1113 25.2129 71.6484 25.0283 71.0566 25.0283ZM80.6982 31.4707C81.2314 31.4707 81.6738 31.3154 82.0254 31.0049C82.377 30.6943 82.5645 30.3105 82.5879 29.8535H84.6006C84.5771 30.4453 84.3926 30.999 84.0469 31.5146C83.7012 32.0244 83.2324 32.4287 82.6406 32.7275C82.0488 33.0264 81.4102 33.1758 80.7246 33.1758C79.3945 33.1758 78.3398 32.7451 77.5605 31.8838C76.7812 31.0225 76.3916 29.833 76.3916 28.3154V28.0957C76.3916 26.6484 76.7783 25.4912 77.5518 24.624C78.3252 23.751 79.3799 23.3145 80.7158 23.3145C81.8467 23.3145 82.7666 23.6455 83.4756 24.3076C84.1904 24.9639 84.5654 25.8281 84.6006 26.9004H82.5879C82.5645 26.3555 82.377 25.9072 82.0254 25.5557C81.6797 25.2041 81.2373 25.0283 80.6982 25.0283C80.0068 25.0283 79.4736 25.2803 79.0986 25.7842C78.7236 26.2822 78.5332 27.041 78.5273 28.0605V28.4033C78.5273 29.4346 78.7119 30.2051 79.0811 30.7148C79.4561 31.2188 79.9951 31.4707 80.6982 31.4707ZM88.4854 33H86.3496V23.4902H88.4854V33ZM86.2178 21.0205C86.2178 20.6924 86.3203 20.4199 86.5254 20.2031C86.7363 19.9863 87.0352 19.8779 87.4219 19.8779C87.8086 19.8779 88.1074 19.9863 88.3184 20.2031C88.5293 20.4199 88.6348 20.6924 88.6348 21.0205C88.6348 21.3428 88.5293 21.6123 88.3184 21.8291C88.1074 22.04 87.8086 22.1455 87.4219 22.1455C87.0352 22.1455 86.7363 22.04 86.5254 21.8291C86.3203 21.6123 86.2178 21.3428 86.2178 21.0205ZM92.8271 23.4902L92.8887 24.4834C93.5566 23.7041 94.4707 23.3145 95.6309 23.3145C96.9023 23.3145 97.7725 23.8008 98.2412 24.7734C98.9326 23.8008 99.9053 23.3145 101.159 23.3145C102.208 23.3145 102.987 23.6045 103.497 24.1846C104.013 24.7646 104.276 25.6201 104.288 26.751V33H102.152V26.8125C102.152 26.209 102.021 25.7666 101.757 25.4854C101.493 25.2041 101.057 25.0635 100.447 25.0635C99.9609 25.0635 99.5625 25.1953 99.252 25.459C98.9473 25.7168 98.7334 26.0566 98.6104 26.4785L98.6191 33H96.4834V26.7422C96.4541 25.623 95.8828 25.0635 94.7695 25.0635C93.9141 25.0635 93.3076 25.4121 92.9502 26.1094V33H90.8145V23.4902H92.8271ZM110.669 33.1758C109.315 33.1758 108.217 32.751 107.373 31.9014C106.535 31.0459 106.116 29.9092 106.116 28.4912V28.2275C106.116 27.2783 106.298 26.4316 106.661 25.6875C107.03 24.9375 107.546 24.3545 108.208 23.9385C108.87 23.5225 109.608 23.3145 110.423 23.3145C111.718 23.3145 112.717 23.7275 113.42 24.5537C114.129 25.3799 114.483 26.5488 114.483 28.0605V28.9219H108.27C108.334 29.707 108.595 30.3281 109.052 30.7852C109.515 31.2422 110.095 31.4707 110.792 31.4707C111.771 31.4707 112.567 31.0752 113.183 30.2842L114.334 31.3828C113.953 31.9512 113.443 32.3936 112.805 32.71C112.172 33.0205 111.46 33.1758 110.669 33.1758ZM110.414 25.0283C109.828 25.0283 109.354 25.2334 108.99 25.6436C108.633 26.0537 108.404 26.625 108.305 27.3574H112.374V27.1992C112.327 26.4844 112.137 25.9453 111.803 25.582C111.469 25.2129 111.006 25.0283 110.414 25.0283ZM118.131 23.4902L118.192 24.5889C118.896 23.7393 119.818 23.3145 120.961 23.3145C122.941 23.3145 123.949 24.4482 123.984 26.7158V33H121.849V26.8389C121.849 26.2354 121.717 25.79 121.453 25.5029C121.195 25.21 120.771 25.0635 120.179 25.0635C119.317 25.0635 118.676 25.4531 118.254 26.2324V33H116.118V23.4902H118.131ZM128.845 21.1787V23.4902H130.523V25.0723H128.845V30.3809C128.845 30.7441 128.915 31.0078 129.056 31.1719C129.202 31.3301 129.46 31.4092 129.829 31.4092C130.075 31.4092 130.324 31.3799 130.576 31.3213V32.9736C130.09 33.1084 129.621 33.1758 129.17 33.1758C127.529 33.1758 126.709 32.2705 126.709 30.46V25.0723H125.145V23.4902H126.709V21.1787H128.845ZM131.499 28.1572C131.499 27.2256 131.684 26.3877 132.053 25.6436C132.422 24.8936 132.94 24.3193 133.608 23.9209C134.276 23.5166 135.044 23.3145 135.911 23.3145C137.194 23.3145 138.234 23.7275 139.031 24.5537C139.834 25.3799 140.268 26.4756 140.332 27.8408L140.341 28.3418C140.341 29.2793 140.159 30.1172 139.796 30.8555C139.438 31.5938 138.923 32.165 138.249 32.5693C137.581 32.9736 136.808 33.1758 135.929 33.1758C134.587 33.1758 133.512 32.7305 132.703 31.8398C131.9 30.9434 131.499 29.751 131.499 28.2627V28.1572ZM133.635 28.3418C133.635 29.3203 133.837 30.0879 134.241 30.6445C134.646 31.1953 135.208 31.4707 135.929 31.4707C136.649 31.4707 137.209 31.1895 137.607 30.627C138.012 30.0645 138.214 29.2412 138.214 28.1572C138.214 27.1963 138.006 26.4346 137.59 25.8721C137.18 25.3096 136.62 25.0283 135.911 25.0283C135.214 25.0283 134.66 25.3066 134.25 25.8633C133.84 26.4141 133.635 27.2402 133.635 28.3418ZM147.478 30.416C147.478 30.0352 147.319 29.7451 147.003 29.5459C146.692 29.3467 146.174 29.1709 145.447 29.0186C144.721 28.8662 144.114 28.6729 143.628 28.4385C142.562 27.9229 142.028 27.1758 142.028 26.1973C142.028 25.377 142.374 24.6914 143.065 24.1406C143.757 23.5898 144.636 23.3145 145.702 23.3145C146.839 23.3145 147.756 23.5957 148.453 24.1582C149.156 24.7207 149.508 25.4502 149.508 26.3467H147.372C147.372 25.9365 147.22 25.5967 146.915 25.3271C146.61 25.0518 146.206 24.9141 145.702 24.9141C145.233 24.9141 144.85 25.0225 144.551 25.2393C144.258 25.4561 144.111 25.7461 144.111 26.1094C144.111 26.4375 144.249 26.6924 144.524 26.874C144.8 27.0557 145.356 27.2402 146.194 27.4277C147.032 27.6094 147.688 27.8291 148.163 28.0869C148.644 28.3389 148.998 28.6436 149.227 29.001C149.461 29.3584 149.578 29.792 149.578 30.3018C149.578 31.1572 149.224 31.8516 148.515 32.3848C147.806 32.9121 146.877 33.1758 145.729 33.1758C144.949 33.1758 144.255 33.0352 143.646 32.7539C143.036 32.4727 142.562 32.0859 142.222 31.5938C141.882 31.1016 141.712 30.5713 141.712 30.0029H143.786C143.815 30.5068 144.006 30.8965 144.357 31.1719C144.709 31.4414 145.175 31.5762 145.755 31.5762C146.317 31.5762 146.745 31.4707 147.038 31.2598C147.331 31.043 147.478 30.7617 147.478 30.416Z" fill="#F2F2F2"/>
<path d="M26.3828 53.9688C26.3828 53.5156 26.526 53.1432 26.8125 52.8516C27.1042 52.5599 27.4896 52.4141 27.9688 52.4141C28.4427 52.4141 28.8281 52.5573 29.125 52.8438C29.4219 53.125 29.5703 53.5078 29.5703 53.9922V54.2812C29.5703 54.7344 29.4271 55.1042 29.1406 55.3906C28.8542 55.6771 28.4661 55.8203 27.9766 55.8203C27.4922 55.8203 27.1042 55.6771 26.8125 55.3906C26.526 55.099 26.3828 54.724 26.3828 54.2656V53.9688ZM50.0625 60H48.5547V54.7422H42.8203V60H41.3203V48.625H42.8203V53.5156H48.5547V48.625H50.0625V60ZM60.3516 49.8594H56.6953V60H55.2031V49.8594H51.5547V48.625H60.3516V49.8594ZM63.9766 48.625L67.6953 57.9062L71.4141 48.625H73.3594V60H71.8594V55.5703L72 50.7891L68.2656 60H67.1172L63.3906 50.8125L63.5391 55.5703V60H62.0391V48.625H63.9766ZM77.5156 58.7734H82.9062V60H76.0078V48.625H77.5156V58.7734ZM91.8672 60.1562C90.7214 60.1562 89.7891 59.7812 89.0703 59.0312C88.3516 58.276 87.9922 57.2682 87.9922 56.0078V55.7422C87.9922 54.9036 88.151 54.1562 88.4688 53.5C88.7917 52.8385 89.2396 52.3229 89.8125 51.9531C90.3906 51.5781 91.0156 51.3906 91.6875 51.3906C92.7865 51.3906 93.6406 51.7526 94.25 52.4766C94.8594 53.2005 95.1641 54.237 95.1641 55.5859V56.1875H89.4375C89.4583 57.0208 89.7005 57.6953 90.1641 58.2109C90.6328 58.7214 91.2266 58.9766 91.9453 58.9766C92.4557 58.9766 92.888 58.8724 93.2422 58.6641C93.5964 58.4557 93.9062 58.1797 94.1719 57.8359L95.0547 58.5234C94.3464 59.612 93.2839 60.1562 91.8672 60.1562ZM91.6875 52.5781C91.1042 52.5781 90.6146 52.7917 90.2188 53.2188C89.8229 53.6406 89.5781 54.2344 89.4844 55H93.7188V54.8906C93.6771 54.1562 93.4792 53.5885 93.125 53.1875C92.7708 52.7812 92.2917 52.5781 91.6875 52.5781ZM109.406 56.3906C109.266 57.5938 108.82 58.5234 108.07 59.1797C107.326 59.8307 106.333 60.1562 105.094 60.1562C103.75 60.1562 102.672 59.6745 101.859 58.7109C101.052 57.7474 100.648 56.4583 100.648 54.8438V53.75C100.648 52.6927 100.836 51.763 101.211 50.9609C101.591 50.1589 102.128 49.5443 102.82 49.1172C103.513 48.6849 104.315 48.4688 105.227 48.4688C106.435 48.4688 107.404 48.8073 108.133 49.4844C108.862 50.1562 109.286 51.0885 109.406 52.2812H107.898C107.768 51.375 107.484 50.7188 107.047 50.3125C106.615 49.9062 106.008 49.7031 105.227 49.7031C104.268 49.7031 103.516 50.0573 102.969 50.7656C102.427 51.474 102.156 52.4818 102.156 53.7891V54.8906C102.156 56.125 102.414 57.1068 102.93 57.8359C103.445 58.5651 104.167 58.9297 105.094 58.9297C105.927 58.9297 106.565 58.7422 107.008 58.3672C107.456 57.987 107.753 57.3281 107.898 56.3906H109.406ZM114.812 54.9297C113.526 54.5599 112.589 54.1068 112 53.5703C111.417 53.0286 111.125 52.362 111.125 51.5703C111.125 50.6745 111.482 49.9349 112.195 49.3516C112.914 48.763 113.846 48.4688 114.992 48.4688C115.773 48.4688 116.469 48.6198 117.078 48.9219C117.693 49.224 118.167 49.6406 118.5 50.1719C118.839 50.7031 119.008 51.2839 119.008 51.9141H117.5C117.5 51.2266 117.281 50.6875 116.844 50.2969C116.406 49.901 115.789 49.7031 114.992 49.7031C114.253 49.7031 113.674 49.8672 113.258 50.1953C112.846 50.5182 112.641 50.9688 112.641 51.5469C112.641 52.0104 112.836 52.4036 113.227 52.7266C113.622 53.0443 114.292 53.3359 115.234 53.6016C116.182 53.8672 116.922 54.1615 117.453 54.4844C117.99 54.8021 118.385 55.1745 118.641 55.6016C118.901 56.0286 119.031 56.5312 119.031 57.1094C119.031 58.0312 118.672 58.7708 117.953 59.3281C117.234 59.8802 116.273 60.1562 115.07 60.1562C114.289 60.1562 113.56 60.0078 112.883 59.7109C112.206 59.4089 111.682 58.9974 111.312 58.4766C110.948 57.9557 110.766 57.3646 110.766 56.7031H112.273C112.273 57.3906 112.526 57.9349 113.031 58.3359C113.542 58.7318 114.221 58.9297 115.07 58.9297C115.862 58.9297 116.469 58.7682 116.891 58.4453C117.312 58.1224 117.523 57.6823 117.523 57.125C117.523 56.5677 117.328 56.138 116.938 55.8359C116.547 55.5286 115.839 55.2266 114.812 54.9297ZM124.312 54.9297C123.026 54.5599 122.089 54.1068 121.5 53.5703C120.917 53.0286 120.625 52.362 120.625 51.5703C120.625 50.6745 120.982 49.9349 121.695 49.3516C122.414 48.763 123.346 48.4688 124.492 48.4688C125.273 48.4688 125.969 48.6198 126.578 48.9219C127.193 49.224 127.667 49.6406 128 50.1719C128.339 50.7031 128.508 51.2839 128.508 51.9141H127C127 51.2266 126.781 50.6875 126.344 50.2969C125.906 49.901 125.289 49.7031 124.492 49.7031C123.753 49.7031 123.174 49.8672 122.758 50.1953C122.346 50.5182 122.141 50.9688 122.141 51.5469C122.141 52.0104 122.336 52.4036 122.727 52.7266C123.122 53.0443 123.792 53.3359 124.734 53.6016C125.682 53.8672 126.422 54.1615 126.953 54.4844C127.49 54.8021 127.885 55.1745 128.141 55.6016C128.401 56.0286 128.531 56.5312 128.531 57.1094C128.531 58.0312 128.172 58.7708 127.453 59.3281C126.734 59.8802 125.773 60.1562 124.57 60.1562C123.789 60.1562 123.06 60.0078 122.383 59.7109C121.706 59.4089 121.182 58.9974 120.812 58.4766C120.448 57.9557 120.266 57.3646 120.266 56.7031H121.773C121.773 57.3906 122.026 57.9349 122.531 58.3359C123.042 58.7318 123.721 58.9297 124.57 58.9297C125.362 58.9297 125.969 58.7682 126.391 58.4453C126.812 58.1224 127.023 57.6823 127.023 57.125C127.023 56.5677 126.828 56.138 126.438 55.8359C126.047 55.5286 125.339 55.2266 124.312 54.9297Z" fill="#F2F2F2"/>
<path d="M26.3828 88.9688C26.3828 88.5156 26.526 88.1432 26.8125 87.8516C27.1042 87.5599 27.4896 87.4141 27.9688 87.4141C28.4427 87.4141 28.8281 87.5573 29.125 87.8438C29.4219 88.125 29.5703 88.5078 29.5703 88.9922V89.2812C29.5703 89.7344 29.4271 90.1042 29.1406 90.3906C28.8542 90.6771 28.4661 90.8203 27.9766 90.8203C27.4922 90.8203 27.1042 90.6771 26.8125 90.3906C26.526 90.099 26.3828 89.724 26.3828 89.2656V88.9688ZM44.6719 89.9297C43.3854 89.5599 42.4479 89.1068 41.8594 88.5703C41.276 88.0286 40.9844 87.362 40.9844 86.5703C40.9844 85.6745 41.3411 84.9349 42.0547 84.3516C42.7734 83.763 43.7057 83.4688 44.8516 83.4688C45.6328 83.4688 46.3281 83.6198 46.9375 83.9219C47.5521 84.224 48.026 84.6406 48.3594 85.1719C48.6979 85.7031 48.8672 86.2839 48.8672 86.9141H47.3594C47.3594 86.2266 47.1406 85.6875 46.7031 85.2969C46.2656 84.901 45.6484 84.7031 44.8516 84.7031C44.112 84.7031 43.5339 84.8672 43.1172 85.1953C42.7057 85.5182 42.5 85.9688 42.5 86.5469C42.5 87.0104 42.6953 87.4036 43.0859 87.7266C43.4818 88.0443 44.151 88.3359 45.0938 88.6016C46.0417 88.8672 46.7812 89.1615 47.3125 89.4844C47.849 89.8021 48.2448 90.1745 48.5 90.6016C48.7604 91.0286 48.8906 91.5312 48.8906 92.1094C48.8906 93.0312 48.5312 93.7708 47.8125 94.3281C47.0938 94.8802 46.1328 95.1562 44.9297 95.1562C44.1484 95.1562 43.4193 95.0078 42.7422 94.7109C42.0651 94.4089 41.5417 93.9974 41.1719 93.4766C40.8073 92.9557 40.625 92.3646 40.625 91.7031H42.1328C42.1328 92.3906 42.3854 92.9349 42.8906 93.3359C43.401 93.7318 44.0807 93.9297 44.9297 93.9297C45.7214 93.9297 46.3281 93.7682 46.75 93.4453C47.1719 93.1224 47.3828 92.6823 47.3828 92.125C47.3828 91.5677 47.1875 91.138 46.7969 90.8359C46.4062 90.5286 45.6979 90.2266 44.6719 89.9297ZM55.8125 95C55.7292 94.8333 55.6615 94.5365 55.6094 94.1094C54.9375 94.8073 54.1354 95.1562 53.2031 95.1562C52.3698 95.1562 51.6849 94.9219 51.1484 94.4531C50.6172 93.9792 50.3516 93.3802 50.3516 92.6562C50.3516 91.776 50.6849 91.0938 51.3516 90.6094C52.0234 90.1198 52.9661 89.875 54.1797 89.875H55.5859V89.2109C55.5859 88.7057 55.4349 88.3047 55.1328 88.0078C54.8307 87.7057 54.3854 87.5547 53.7969 87.5547C53.2812 87.5547 52.849 87.6849 52.5 87.9453C52.151 88.2057 51.9766 88.5208 51.9766 88.8906H50.5234C50.5234 88.4688 50.6719 88.0625 50.9688 87.6719C51.2708 87.276 51.6771 86.9635 52.1875 86.7344C52.7031 86.5052 53.2682 86.3906 53.8828 86.3906C54.8568 86.3906 55.6198 86.6354 56.1719 87.125C56.724 87.6094 57.0104 88.2786 57.0312 89.1328V93.0234C57.0312 93.7995 57.1302 94.4167 57.3281 94.875V95H55.8125ZM53.4141 93.8984C53.8672 93.8984 54.2969 93.7812 54.7031 93.5469C55.1094 93.3125 55.4036 93.0078 55.5859 92.6328V90.8984H54.4531C52.6823 90.8984 51.7969 91.4167 51.7969 92.4531C51.7969 92.9062 51.9479 93.2604 52.25 93.5156C52.5521 93.7708 52.9401 93.8984 53.4141 93.8984ZM64.2188 92.7578C64.2188 92.3672 64.0703 92.0651 63.7734 91.8516C63.4818 91.6328 62.9688 91.4453 62.2344 91.2891C61.5052 91.1328 60.9245 90.9453 60.4922 90.7266C60.0651 90.5078 59.7474 90.2474 59.5391 89.9453C59.3359 89.6432 59.2344 89.2839 59.2344 88.8672C59.2344 88.1745 59.526 87.5885 60.1094 87.1094C60.6979 86.6302 61.4479 86.3906 62.3594 86.3906C63.3177 86.3906 64.0938 86.638 64.6875 87.1328C65.2865 87.6276 65.5859 88.2604 65.5859 89.0312H64.1328C64.1328 88.6354 63.9635 88.2943 63.625 88.0078C63.2917 87.7214 62.8698 87.5781 62.3594 87.5781C61.8333 87.5781 61.4219 87.6927 61.125 87.9219C60.8281 88.151 60.6797 88.4505 60.6797 88.8203C60.6797 89.1693 60.8177 89.4323 61.0938 89.6094C61.3698 89.7865 61.8672 89.9557 62.5859 90.1172C63.3099 90.2786 63.8958 90.4714 64.3438 90.6953C64.7917 90.9193 65.1224 91.1901 65.3359 91.5078C65.5547 91.8203 65.6641 92.2031 65.6641 92.6562C65.6641 93.4115 65.362 94.0182 64.7578 94.4766C64.1536 94.9297 63.3698 95.1562 62.4062 95.1562C61.7292 95.1562 61.1302 95.0365 60.6094 94.7969C60.0885 94.5573 59.6797 94.224 59.3828 93.7969C59.0911 93.3646 58.9453 92.8984 58.9453 92.3984H60.3906C60.4167 92.8828 60.6094 93.2682 60.9688 93.5547C61.3333 93.8359 61.8125 93.9766 62.4062 93.9766C62.9531 93.9766 63.3906 93.8672 63.7188 93.6484C64.0521 93.4245 64.2188 93.1276 64.2188 92.7578ZM72.4688 92.7578C72.4688 92.3672 72.3203 92.0651 72.0234 91.8516C71.7318 91.6328 71.2188 91.4453 70.4844 91.2891C69.7552 91.1328 69.1745 90.9453 68.7422 90.7266C68.3151 90.5078 67.9974 90.2474 67.7891 89.9453C67.5859 89.6432 67.4844 89.2839 67.4844 88.8672C67.4844 88.1745 67.776 87.5885 68.3594 87.1094C68.9479 86.6302 69.6979 86.3906 70.6094 86.3906C71.5677 86.3906 72.3438 86.638 72.9375 87.1328C73.5365 87.6276 73.8359 88.2604 73.8359 89.0312H72.3828C72.3828 88.6354 72.2135 88.2943 71.875 88.0078C71.5417 87.7214 71.1198 87.5781 70.6094 87.5781C70.0833 87.5781 69.6719 87.6927 69.375 87.9219C69.0781 88.151 68.9297 88.4505 68.9297 88.8203C68.9297 89.1693 69.0677 89.4323 69.3438 89.6094C69.6198 89.7865 70.1172 89.9557 70.8359 90.1172C71.5599 90.2786 72.1458 90.4714 72.5938 90.6953C73.0417 90.9193 73.3724 91.1901 73.5859 91.5078C73.8047 91.8203 73.9141 92.2031 73.9141 92.6562C73.9141 93.4115 73.612 94.0182 73.0078 94.4766C72.4036 94.9297 71.6198 95.1562 70.6562 95.1562C69.9792 95.1562 69.3802 95.0365 68.8594 94.7969C68.3385 94.5573 67.9297 94.224 67.6328 93.7969C67.3411 93.3646 67.1953 92.8984 67.1953 92.3984H68.6406C68.6667 92.8828 68.8594 93.2682 69.2188 93.5547C69.5833 93.8359 70.0625 93.9766 70.6562 93.9766C71.2031 93.9766 71.6406 93.8672 71.9688 93.6484C72.3021 93.4245 72.4688 93.1276 72.4688 92.7578Z" fill="#F2F2F2"/>
<path d="M26.3828 123.969C26.3828 123.516 26.526 123.143 26.8125 122.852C27.1042 122.56 27.4896 122.414 27.9688 122.414C28.4427 122.414 28.8281 122.557 29.125 122.844C29.4219 123.125 29.5703 123.508 29.5703 123.992V124.281C29.5703 124.734 29.4271 125.104 29.1406 125.391C28.8542 125.677 28.4661 125.82 27.9766 125.82C27.4922 125.82 27.1042 125.677 26.8125 125.391C26.526 125.099 26.3828 124.724 26.3828 124.266V123.969ZM41.3203 130V118.625H45.0391C46.2734 118.625 47.2005 118.88 47.8203 119.391C48.4453 119.901 48.7578 120.656 48.7578 121.656C48.7578 122.188 48.6068 122.659 48.3047 123.07C48.0026 123.477 47.5911 123.792 47.0703 124.016C47.6849 124.188 48.1693 124.516 48.5234 125C48.8828 125.479 49.0625 126.052 49.0625 126.719C49.0625 127.74 48.7318 128.542 48.0703 129.125C47.4089 129.708 46.474 130 45.2656 130H41.3203ZM42.8203 124.68V128.773H45.2969C45.9948 128.773 46.5443 128.594 46.9453 128.234C47.3516 127.87 47.5547 127.37 47.5547 126.734C47.5547 125.365 46.8099 124.68 45.3203 124.68H42.8203ZM42.8203 123.477H45.0859C45.7422 123.477 46.2656 123.312 46.6562 122.984C47.0521 122.656 47.25 122.211 47.25 121.648C47.25 121.023 47.0677 120.57 46.7031 120.289C46.3385 120.003 45.7839 119.859 45.0391 119.859H42.8203V123.477ZM50.6797 125.695C50.6797 124.867 50.8411 124.122 51.1641 123.461C51.4922 122.799 51.9453 122.289 52.5234 121.93C53.1068 121.57 53.7708 121.391 54.5156 121.391C55.6667 121.391 56.5964 121.789 57.3047 122.586C58.0182 123.383 58.375 124.443 58.375 125.766V125.867C58.375 126.69 58.2161 127.43 57.8984 128.086C57.5859 128.737 57.1354 129.245 56.5469 129.609C55.9635 129.974 55.2917 130.156 54.5312 130.156C53.3854 130.156 52.4557 129.758 51.7422 128.961C51.0339 128.164 50.6797 127.109 50.6797 125.797V125.695ZM52.1328 125.867C52.1328 126.805 52.349 127.557 52.7812 128.125C53.2188 128.693 53.8021 128.977 54.5312 128.977C55.2656 128.977 55.849 128.69 56.2812 128.117C56.7135 127.539 56.9297 126.732 56.9297 125.695C56.9297 124.768 56.7083 124.018 56.2656 123.445C55.8281 122.867 55.2448 122.578 54.5156 122.578C53.8021 122.578 53.2266 122.862 52.7891 123.43C52.3516 123.997 52.1328 124.81 52.1328 125.867ZM59.8047 125.695C59.8047 124.867 59.9661 124.122 60.2891 123.461C60.6172 122.799 61.0703 122.289 61.6484 121.93C62.2318 121.57 62.8958 121.391 63.6406 121.391C64.7917 121.391 65.7214 121.789 66.4297 122.586C67.1432 123.383 67.5 124.443 67.5 125.766V125.867C67.5 126.69 67.3411 127.43 67.0234 128.086C66.7109 128.737 66.2604 129.245 65.6719 129.609C65.0885 129.974 64.4167 130.156 63.6562 130.156C62.5104 130.156 61.5807 129.758 60.8672 128.961C60.1589 128.164 59.8047 127.109 59.8047 125.797V125.695ZM61.2578 125.867C61.2578 126.805 61.474 127.557 61.9062 128.125C62.3438 128.693 62.9271 128.977 63.6562 128.977C64.3906 128.977 64.974 128.69 65.4062 128.117C65.8385 127.539 66.0547 126.732 66.0547 125.695C66.0547 124.768 65.8333 124.018 65.3906 123.445C64.9531 122.867 64.3698 122.578 63.6406 122.578C62.9271 122.578 62.3516 122.862 61.9141 123.43C61.4766 123.997 61.2578 124.81 61.2578 125.867ZM71.2734 119.5V121.547H72.8516V122.664H71.2734V127.906C71.2734 128.245 71.3438 128.5 71.4844 128.672C71.625 128.839 71.8646 128.922 72.2031 128.922C72.3698 128.922 72.599 128.891 72.8906 128.828V130C72.5104 130.104 72.1406 130.156 71.7812 130.156C71.1354 130.156 70.6484 129.961 70.3203 129.57C69.9922 129.18 69.8281 128.625 69.8281 127.906V122.664H68.2891V121.547H69.8281V119.5H71.2734ZM79.4688 127.758C79.4688 127.367 79.3203 127.065 79.0234 126.852C78.7318 126.633 78.2188 126.445 77.4844 126.289C76.7552 126.133 76.1745 125.945 75.7422 125.727C75.3151 125.508 74.9974 125.247 74.7891 124.945C74.5859 124.643 74.4844 124.284 74.4844 123.867C74.4844 123.174 74.776 122.589 75.3594 122.109C75.9479 121.63 76.6979 121.391 77.6094 121.391C78.5677 121.391 79.3438 121.638 79.9375 122.133C80.5365 122.628 80.8359 123.26 80.8359 124.031H79.3828C79.3828 123.635 79.2135 123.294 78.875 123.008C78.5417 122.721 78.1198 122.578 77.6094 122.578C77.0833 122.578 76.6719 122.693 76.375 122.922C76.0781 123.151 75.9297 123.451 75.9297 123.82C75.9297 124.169 76.0677 124.432 76.3438 124.609C76.6198 124.786 77.1172 124.956 77.8359 125.117C78.5599 125.279 79.1458 125.471 79.5938 125.695C80.0417 125.919 80.3724 126.19 80.5859 126.508C80.8047 126.82 80.9141 127.203 80.9141 127.656C80.9141 128.411 80.612 129.018 80.0078 129.477C79.4036 129.93 78.6198 130.156 77.6562 130.156C76.9792 130.156 76.3802 130.036 75.8594 129.797C75.3385 129.557 74.9297 129.224 74.6328 128.797C74.3411 128.365 74.1953 127.898 74.1953 127.398H75.6406C75.6667 127.883 75.8594 128.268 76.2188 128.555C76.5833 128.836 77.0625 128.977 77.6562 128.977C78.2031 128.977 78.6406 128.867 78.9688 128.648C79.3021 128.424 79.4688 128.128 79.4688 127.758ZM90.8828 119.859H87.2266V130H85.7344V119.859H82.0859V118.625H90.8828V119.859ZM95.8359 122.844C95.6172 122.807 95.3802 122.789 95.125 122.789C94.1771 122.789 93.5339 123.193 93.1953 124V130H91.75V121.547H93.1562L93.1797 122.523C93.6536 121.768 94.3255 121.391 95.1953 121.391C95.4766 121.391 95.6901 121.427 95.8359 121.5V122.844ZM102.078 130C101.995 129.833 101.927 129.536 101.875 129.109C101.203 129.807 100.401 130.156 99.4688 130.156C98.6354 130.156 97.9505 129.922 97.4141 129.453C96.8828 128.979 96.6172 128.38 96.6172 127.656C96.6172 126.776 96.9505 126.094 97.6172 125.609C98.2891 125.12 99.2318 124.875 100.445 124.875H101.852V124.211C101.852 123.706 101.701 123.305 101.398 123.008C101.096 122.706 100.651 122.555 100.062 122.555C99.5469 122.555 99.1146 122.685 98.7656 122.945C98.4167 123.206 98.2422 123.521 98.2422 123.891H96.7891C96.7891 123.469 96.9375 123.062 97.2344 122.672C97.5365 122.276 97.9427 121.964 98.4531 121.734C98.9688 121.505 99.5339 121.391 100.148 121.391C101.122 121.391 101.885 121.635 102.438 122.125C102.99 122.609 103.276 123.279 103.297 124.133V128.023C103.297 128.799 103.396 129.417 103.594 129.875V130H102.078ZM99.6797 128.898C100.133 128.898 100.562 128.781 100.969 128.547C101.375 128.312 101.669 128.008 101.852 127.633V125.898H100.719C98.9479 125.898 98.0625 126.417 98.0625 127.453C98.0625 127.906 98.2135 128.26 98.5156 128.516C98.8177 128.771 99.2057 128.898 99.6797 128.898ZM112.703 125.867C112.703 127.154 112.409 128.19 111.82 128.977C111.232 129.763 110.435 130.156 109.43 130.156C108.404 130.156 107.596 129.831 107.008 129.18V133.25H105.562V121.547H106.883L106.953 122.484C107.542 121.755 108.359 121.391 109.406 121.391C110.422 121.391 111.224 121.773 111.812 122.539C112.406 123.305 112.703 124.37 112.703 125.734V125.867ZM111.258 125.703C111.258 124.75 111.055 123.997 110.648 123.445C110.242 122.893 109.685 122.617 108.977 122.617C108.102 122.617 107.445 123.005 107.008 123.781V127.82C107.44 128.591 108.102 128.977 108.992 128.977C109.685 128.977 110.234 128.703 110.641 128.156C111.052 127.604 111.258 126.786 111.258 125.703Z" fill="#F2F2F2"/>
<path d="M26.3828 158.969C26.3828 158.516 26.526 158.143 26.8125 157.852C27.1042 157.56 27.4896 157.414 27.9688 157.414C28.4427 157.414 28.8281 157.557 29.125 157.844C29.4219 158.125 29.5703 158.508 29.5703 158.992V159.281C29.5703 159.734 29.4271 160.104 29.1406 160.391C28.8542 160.677 28.4661 160.82 27.9766 160.82C27.4922 160.82 27.1042 160.677 26.8125 160.391C26.526 160.099 26.3828 159.724 26.3828 159.266V158.969ZM46.0859 153.625H47.5938V161.68C47.5938 162.768 47.2656 163.62 46.6094 164.234C45.9583 164.849 45.0885 165.156 44 165.156C42.8698 165.156 41.9896 164.867 41.3594 164.289C40.7292 163.711 40.4141 162.901 40.4141 161.859H41.9141C41.9141 162.51 42.0911 163.018 42.4453 163.383C42.8047 163.747 43.3229 163.93 44 163.93C44.6198 163.93 45.1198 163.734 45.5 163.344C45.8854 162.953 46.0807 162.406 46.0859 161.703V153.625ZM58.8359 159.68C58.8359 160.779 58.6615 161.727 58.3125 162.523C57.9635 163.315 57.474 163.935 56.8438 164.383L58.875 165.977L57.8516 166.922L55.4531 165.016C55.0781 165.109 54.6823 165.156 54.2656 165.156C53.3698 165.156 52.5755 164.938 51.8828 164.5C51.1901 164.057 50.651 163.43 50.2656 162.617C49.8854 161.799 49.6901 160.854 49.6797 159.781V158.961C49.6797 157.867 49.8698 156.901 50.25 156.062C50.6302 155.224 51.1667 154.583 51.8594 154.141C52.5573 153.693 53.3542 153.469 54.25 153.469C55.1667 153.469 55.9714 153.69 56.6641 154.133C57.362 154.576 57.8984 155.214 58.2734 156.047C58.6484 156.875 58.8359 157.844 58.8359 158.953V159.68ZM57.3359 158.945C57.3359 157.607 57.0677 156.576 56.5312 155.852C56 155.122 55.2396 154.758 54.25 154.758C53.3073 154.758 52.5625 155.12 52.0156 155.844C51.474 156.562 51.1953 157.562 51.1797 158.844V159.68C51.1797 160.982 51.4505 162.008 51.9922 162.758C52.5391 163.508 53.2969 163.883 54.2656 163.883C55.2344 163.883 55.9844 163.531 56.5156 162.828C57.0469 162.12 57.3203 161.107 57.3359 159.789V158.945ZM66.1406 164.164C65.5781 164.826 64.7526 165.156 63.6641 165.156C62.763 165.156 62.0755 164.896 61.6016 164.375C61.1328 163.849 60.8958 163.073 60.8906 162.047V156.547H62.3359V162.008C62.3359 163.289 62.8568 163.93 63.8984 163.93C65.0026 163.93 65.737 163.518 66.1016 162.695V156.547H67.5469V165H66.1719L66.1406 164.164ZM73.2578 165.156C72.112 165.156 71.1797 164.781 70.4609 164.031C69.7422 163.276 69.3828 162.268 69.3828 161.008V160.742C69.3828 159.904 69.5417 159.156 69.8594 158.5C70.1823 157.839 70.6302 157.323 71.2031 156.953C71.7812 156.578 72.4062 156.391 73.0781 156.391C74.1771 156.391 75.0312 156.753 75.6406 157.477C76.25 158.201 76.5547 159.237 76.5547 160.586V161.188H70.8281C70.849 162.021 71.0911 162.695 71.5547 163.211C72.0234 163.721 72.6172 163.977 73.3359 163.977C73.8464 163.977 74.2786 163.872 74.6328 163.664C74.987 163.456 75.2969 163.18 75.5625 162.836L76.4453 163.523C75.737 164.612 74.6745 165.156 73.2578 165.156ZM73.0781 157.578C72.4948 157.578 72.0052 157.792 71.6094 158.219C71.2135 158.641 70.9688 159.234 70.875 160H75.1094V159.891C75.0677 159.156 74.8698 158.589 74.5156 158.188C74.1615 157.781 73.6823 157.578 73.0781 157.578ZM82.3203 157.844C82.1016 157.807 81.8646 157.789 81.6094 157.789C80.6615 157.789 80.0182 158.193 79.6797 159V165H78.2344V156.547H79.6406L79.6641 157.523C80.138 156.768 80.8099 156.391 81.6797 156.391C81.9609 156.391 82.1745 156.427 82.3203 156.5V157.844ZM86.5625 162.883L88.5312 156.547H90.0781L86.6797 166.305C86.1536 167.711 85.3177 168.414 84.1719 168.414L83.8984 168.391L83.3594 168.289V167.117L83.75 167.148C84.2396 167.148 84.6198 167.049 84.8906 166.852C85.1667 166.654 85.3932 166.292 85.5703 165.766L85.8906 164.906L82.875 156.547H84.4531L86.5625 162.883Z" fill="#F2F2F2"/>
<path d="M156.383 53.9688C156.383 53.5156 156.526 53.1432 156.812 52.8516C157.104 52.5599 157.49 52.4141 157.969 52.4141C158.443 52.4141 158.828 52.5573 159.125 52.8438C159.422 53.125 159.57 53.5078 159.57 53.9922V54.2812C159.57 54.7344 159.427 55.1042 159.141 55.3906C158.854 55.6771 158.466 55.8203 157.977 55.8203C157.492 55.8203 157.104 55.6771 156.812 55.3906C156.526 55.099 156.383 54.724 156.383 54.2656V53.9688ZM176.086 48.625H177.594V56.6797C177.594 57.7682 177.266 58.6198 176.609 59.2344C175.958 59.849 175.089 60.1562 174 60.1562C172.87 60.1562 171.99 59.8672 171.359 59.2891C170.729 58.7109 170.414 57.901 170.414 56.8594H171.914C171.914 57.5104 172.091 58.0182 172.445 58.3828C172.805 58.7474 173.323 58.9297 174 58.9297C174.62 58.9297 175.12 58.7344 175.5 58.3438C175.885 57.9531 176.081 57.4062 176.086 56.7031V48.625ZM185.141 60C185.057 59.8333 184.99 59.5365 184.938 59.1094C184.266 59.8073 183.464 60.1562 182.531 60.1562C181.698 60.1562 181.013 59.9219 180.477 59.4531C179.945 58.9792 179.68 58.3802 179.68 57.6562C179.68 56.776 180.013 56.0938 180.68 55.6094C181.352 55.1198 182.294 54.875 183.508 54.875H184.914V54.2109C184.914 53.7057 184.763 53.3047 184.461 53.0078C184.159 52.7057 183.714 52.5547 183.125 52.5547C182.609 52.5547 182.177 52.6849 181.828 52.9453C181.479 53.2057 181.305 53.5208 181.305 53.8906H179.852C179.852 53.4688 180 53.0625 180.297 52.6719C180.599 52.276 181.005 51.9635 181.516 51.7344C182.031 51.5052 182.596 51.3906 183.211 51.3906C184.185 51.3906 184.948 51.6354 185.5 52.125C186.052 52.6094 186.339 53.2786 186.359 54.1328V58.0234C186.359 58.7995 186.458 59.4167 186.656 59.875V60H185.141ZM182.742 58.8984C183.195 58.8984 183.625 58.7812 184.031 58.5469C184.438 58.3125 184.732 58.0078 184.914 57.6328V55.8984H183.781C182.01 55.8984 181.125 56.4167 181.125 57.4531C181.125 57.9062 181.276 58.2604 181.578 58.5156C181.88 58.7708 182.268 58.8984 182.742 58.8984ZM191.289 58.0391L193.383 51.5469H194.859L191.828 60H190.727L187.664 51.5469H189.141L191.289 58.0391ZM201.344 60C201.26 59.8333 201.193 59.5365 201.141 59.1094C200.469 59.8073 199.667 60.1562 198.734 60.1562C197.901 60.1562 197.216 59.9219 196.68 59.4531C196.148 58.9792 195.883 58.3802 195.883 57.6562C195.883 56.776 196.216 56.0938 196.883 55.6094C197.555 55.1198 198.497 54.875 199.711 54.875H201.117V54.2109C201.117 53.7057 200.966 53.3047 200.664 53.0078C200.362 52.7057 199.917 52.5547 199.328 52.5547C198.812 52.5547 198.38 52.6849 198.031 52.9453C197.682 53.2057 197.508 53.5208 197.508 53.8906H196.055C196.055 53.4688 196.203 53.0625 196.5 52.6719C196.802 52.276 197.208 51.9635 197.719 51.7344C198.234 51.5052 198.799 51.3906 199.414 51.3906C200.388 51.3906 201.151 51.6354 201.703 52.125C202.255 52.6094 202.542 53.2786 202.562 54.1328V58.0234C202.562 58.7995 202.661 59.4167 202.859 59.875V60H201.344ZM198.945 58.8984C199.398 58.8984 199.828 58.7812 200.234 58.5469C200.641 58.3125 200.935 58.0078 201.117 57.6328V55.8984H199.984C198.214 55.8984 197.328 56.4167 197.328 57.4531C197.328 57.9062 197.479 58.2604 197.781 58.5156C198.083 58.7708 198.471 58.8984 198.945 58.8984ZM208.406 54.9297C207.12 54.5599 206.182 54.1068 205.594 53.5703C205.01 53.0286 204.719 52.362 204.719 51.5703C204.719 50.6745 205.076 49.9349 205.789 49.3516C206.508 48.763 207.44 48.4688 208.586 48.4688C209.367 48.4688 210.062 48.6198 210.672 48.9219C211.286 49.224 211.76 49.6406 212.094 50.1719C212.432 50.7031 212.602 51.2839 212.602 51.9141H211.094C211.094 51.2266 210.875 50.6875 210.438 50.2969C210 49.901 209.383 49.7031 208.586 49.7031C207.846 49.7031 207.268 49.8672 206.852 50.1953C206.44 50.5182 206.234 50.9688 206.234 51.5469C206.234 52.0104 206.43 52.4036 206.82 52.7266C207.216 53.0443 207.885 53.3359 208.828 53.6016C209.776 53.8672 210.516 54.1615 211.047 54.4844C211.583 54.8021 211.979 55.1745 212.234 55.6016C212.495 56.0286 212.625 56.5312 212.625 57.1094C212.625 58.0312 212.266 58.7708 211.547 59.3281C210.828 59.8802 209.867 60.1562 208.664 60.1562C207.883 60.1562 207.154 60.0078 206.477 59.7109C205.799 59.4089 205.276 58.9974 204.906 58.4766C204.542 57.9557 204.359 57.3646 204.359 56.7031H205.867C205.867 57.3906 206.12 57.9349 206.625 58.3359C207.135 58.7318 207.815 58.9297 208.664 58.9297C209.456 58.9297 210.062 58.7682 210.484 58.4453C210.906 58.1224 211.117 57.6823 211.117 57.125C211.117 56.5677 210.922 56.138 210.531 55.8359C210.141 55.5286 209.432 55.2266 208.406 54.9297ZM217.719 58.9766C218.234 58.9766 218.685 58.8203 219.07 58.5078C219.456 58.1953 219.669 57.8047 219.711 57.3359H221.078C221.052 57.8203 220.885 58.2812 220.578 58.7188C220.271 59.1562 219.859 59.5052 219.344 59.7656C218.833 60.026 218.292 60.1562 217.719 60.1562C216.568 60.1562 215.651 59.7734 214.969 59.0078C214.292 58.237 213.953 57.1849 213.953 55.8516V55.6094C213.953 54.7865 214.104 54.0547 214.406 53.4141C214.708 52.7734 215.141 52.276 215.703 51.9219C216.271 51.5677 216.94 51.3906 217.711 51.3906C218.659 51.3906 219.445 51.6745 220.07 52.2422C220.701 52.8099 221.036 53.5469 221.078 54.4531H219.711C219.669 53.9062 219.461 53.4583 219.086 53.1094C218.716 52.7552 218.258 52.5781 217.711 52.5781C216.977 52.5781 216.406 52.8438 216 53.375C215.599 53.901 215.398 54.6641 215.398 55.6641V55.9375C215.398 56.9115 215.599 57.6615 216 58.1875C216.401 58.7135 216.974 58.9766 217.719 58.9766ZM226.789 52.8438C226.57 52.8073 226.333 52.7891 226.078 52.7891C225.13 52.7891 224.487 53.1927 224.148 54V60H222.703V51.5469H224.109L224.133 52.5234C224.607 51.7682 225.279 51.3906 226.148 51.3906C226.43 51.3906 226.643 51.4271 226.789 51.5V52.8438ZM229.695 60H228.25V51.5469H229.695V60ZM228.133 49.3047C228.133 49.0703 228.203 48.8724 228.344 48.7109C228.49 48.5495 228.703 48.4688 228.984 48.4688C229.266 48.4688 229.479 48.5495 229.625 48.7109C229.771 48.8724 229.844 49.0703 229.844 49.3047C229.844 49.5391 229.771 49.7344 229.625 49.8906C229.479 50.0469 229.266 50.125 228.984 50.125C228.703 50.125 228.49 50.0469 228.344 49.8906C228.203 49.7344 228.133 49.5391 228.133 49.3047ZM239.156 55.8672C239.156 57.1536 238.862 58.1901 238.273 58.9766C237.685 59.763 236.888 60.1562 235.883 60.1562C234.857 60.1562 234.049 59.8307 233.461 59.1797V63.25H232.016V51.5469H233.336L233.406 52.4844C233.995 51.7552 234.812 51.3906 235.859 51.3906C236.875 51.3906 237.677 51.7734 238.266 52.5391C238.859 53.3047 239.156 54.3698 239.156 55.7344V55.8672ZM237.711 55.7031C237.711 54.75 237.508 53.9974 237.102 53.4453C236.695 52.8932 236.138 52.6172 235.43 52.6172C234.555 52.6172 233.898 53.0052 233.461 53.7812V57.8203C233.893 58.5911 234.555 58.9766 235.445 58.9766C236.138 58.9766 236.688 58.7031 237.094 58.1562C237.505 57.6042 237.711 56.7865 237.711 55.7031ZM242.961 49.5V51.5469H244.539V52.6641H242.961V57.9062C242.961 58.2448 243.031 58.5 243.172 58.6719C243.312 58.8385 243.552 58.9219 243.891 58.9219C244.057 58.9219 244.286 58.8906 244.578 58.8281V60C244.198 60.1042 243.828 60.1562 243.469 60.1562C242.823 60.1562 242.336 59.9609 242.008 59.5703C241.68 59.1797 241.516 58.625 241.516 57.9062V52.6641H239.977V51.5469H241.516V49.5H242.961Z" fill="#F2F2F2"/>
<path d="M156.383 88.9688C156.383 88.5156 156.526 88.1432 156.812 87.8516C157.104 87.5599 157.49 87.4141 157.969 87.4141C158.443 87.4141 158.828 87.5573 159.125 87.8438C159.422 88.125 159.57 88.5078 159.57 88.9922V89.2812C159.57 89.7344 159.427 90.1042 159.141 90.3906C158.854 90.6771 158.466 90.8203 157.977 90.8203C157.492 90.8203 157.104 90.6771 156.812 90.3906C156.526 90.099 156.383 89.724 156.383 89.2656V88.9688ZM179.18 84.8594H175.523V95H174.031V84.8594H170.383V83.625H179.18V84.8594ZM182.844 92.8828L184.812 86.5469H186.359L182.961 96.3047C182.435 97.7109 181.599 98.4141 180.453 98.4141L180.18 98.3906L179.641 98.2891V97.1172L180.031 97.1484C180.521 97.1484 180.901 97.0495 181.172 96.8516C181.448 96.6536 181.674 96.2917 181.852 95.7656L182.172 94.9062L179.156 86.5469H180.734L182.844 92.8828ZM194.797 90.8672C194.797 92.1536 194.503 93.1901 193.914 93.9766C193.326 94.763 192.529 95.1562 191.523 95.1562C190.497 95.1562 189.69 94.8307 189.102 94.1797V98.25H187.656V86.5469H188.977L189.047 87.4844C189.635 86.7552 190.453 86.3906 191.5 86.3906C192.516 86.3906 193.318 86.7734 193.906 87.5391C194.5 88.3047 194.797 89.3698 194.797 90.7344V90.8672ZM193.352 90.7031C193.352 89.75 193.148 88.9974 192.742 88.4453C192.336 87.8932 191.779 87.6172 191.07 87.6172C190.195 87.6172 189.539 88.0052 189.102 88.7812V92.8203C189.534 93.5911 190.195 93.9766 191.086 93.9766C191.779 93.9766 192.328 93.7031 192.734 93.1562C193.146 92.6042 193.352 91.7865 193.352 90.7031ZM200.148 95.1562C199.003 95.1562 198.07 94.7812 197.352 94.0312C196.633 93.276 196.273 92.2682 196.273 91.0078V90.7422C196.273 89.9036 196.432 89.1562 196.75 88.5C197.073 87.8385 197.521 87.3229 198.094 86.9531C198.672 86.5781 199.297 86.3906 199.969 86.3906C201.068 86.3906 201.922 86.7526 202.531 87.4766C203.141 88.2005 203.445 89.237 203.445 90.5859V91.1875H197.719C197.74 92.0208 197.982 92.6953 198.445 93.2109C198.914 93.7214 199.508 93.9766 200.227 93.9766C200.737 93.9766 201.169 93.8724 201.523 93.6641C201.878 93.4557 202.188 93.1797 202.453 92.8359L203.336 93.5234C202.628 94.612 201.565 95.1562 200.148 95.1562ZM199.969 87.5781C199.385 87.5781 198.896 87.7917 198.5 88.2188C198.104 88.6406 197.859 89.2344 197.766 90H202V89.8906C201.958 89.1562 201.76 88.5885 201.406 88.1875C201.052 87.7812 200.573 87.5781 199.969 87.5781ZM208.703 89.9297C207.417 89.5599 206.479 89.1068 205.891 88.5703C205.307 88.0286 205.016 87.362 205.016 86.5703C205.016 85.6745 205.372 84.9349 206.086 84.3516C206.805 83.763 207.737 83.4688 208.883 83.4688C209.664 83.4688 210.359 83.6198 210.969 83.9219C211.583 84.224 212.057 84.6406 212.391 85.1719C212.729 85.7031 212.898 86.2839 212.898 86.9141H211.391C211.391 86.2266 211.172 85.6875 210.734 85.2969C210.297 84.901 209.68 84.7031 208.883 84.7031C208.143 84.7031 207.565 84.8672 207.148 85.1953C206.737 85.5182 206.531 85.9688 206.531 86.5469C206.531 87.0104 206.727 87.4036 207.117 87.7266C207.513 88.0443 208.182 88.3359 209.125 88.6016C210.073 88.8672 210.812 89.1615 211.344 89.4844C211.88 89.8021 212.276 90.1745 212.531 90.6016C212.792 91.0286 212.922 91.5312 212.922 92.1094C212.922 93.0312 212.562 93.7708 211.844 94.3281C211.125 94.8802 210.164 95.1562 208.961 95.1562C208.18 95.1562 207.451 95.0078 206.773 94.7109C206.096 94.4089 205.573 93.9974 205.203 93.4766C204.839 92.9557 204.656 92.3646 204.656 91.7031H206.164C206.164 92.3906 206.417 92.9349 206.922 93.3359C207.432 93.7318 208.112 93.9297 208.961 93.9297C209.753 93.9297 210.359 93.7682 210.781 93.4453C211.203 93.1224 211.414 92.6823 211.414 92.125C211.414 91.5677 211.219 91.138 210.828 90.8359C210.438 90.5286 209.729 90.2266 208.703 89.9297ZM218.016 93.9766C218.531 93.9766 218.982 93.8203 219.367 93.5078C219.753 93.1953 219.966 92.8047 220.008 92.3359H221.375C221.349 92.8203 221.182 93.2812 220.875 93.7188C220.568 94.1562 220.156 94.5052 219.641 94.7656C219.13 95.026 218.589 95.1562 218.016 95.1562C216.865 95.1562 215.948 94.7734 215.266 94.0078C214.589 93.237 214.25 92.1849 214.25 90.8516V90.6094C214.25 89.7865 214.401 89.0547 214.703 88.4141C215.005 87.7734 215.438 87.276 216 86.9219C216.568 86.5677 217.237 86.3906 218.008 86.3906C218.956 86.3906 219.742 86.6745 220.367 87.2422C220.997 87.8099 221.333 88.5469 221.375 89.4531H220.008C219.966 88.9062 219.758 88.4583 219.383 88.1094C219.013 87.7552 218.555 87.5781 218.008 87.5781C217.273 87.5781 216.703 87.8438 216.297 88.375C215.896 88.901 215.695 89.6641 215.695 90.6641V90.9375C215.695 91.9115 215.896 92.6615 216.297 93.1875C216.698 93.7135 217.271 93.9766 218.016 93.9766ZM227.086 87.8438C226.867 87.8073 226.63 87.7891 226.375 87.7891C225.427 87.7891 224.784 88.1927 224.445 89V95H223V86.5469H224.406L224.43 87.5234C224.904 86.7682 225.576 86.3906 226.445 86.3906C226.727 86.3906 226.94 86.4271 227.086 86.5V87.8438ZM229.992 95H228.547V86.5469H229.992V95ZM228.43 84.3047C228.43 84.0703 228.5 83.8724 228.641 83.7109C228.786 83.5495 229 83.4688 229.281 83.4688C229.562 83.4688 229.776 83.5495 229.922 83.7109C230.068 83.8724 230.141 84.0703 230.141 84.3047C230.141 84.5391 230.068 84.7344 229.922 84.8906C229.776 85.0469 229.562 85.125 229.281 85.125C229 85.125 228.786 85.0469 228.641 84.8906C228.5 84.7344 228.43 84.5391 228.43 84.3047ZM239.453 90.8672C239.453 92.1536 239.159 93.1901 238.57 93.9766C237.982 94.763 237.185 95.1562 236.18 95.1562C235.154 95.1562 234.346 94.8307 233.758 94.1797V98.25H232.312V86.5469H233.633L233.703 87.4844C234.292 86.7552 235.109 86.3906 236.156 86.3906C237.172 86.3906 237.974 86.7734 238.562 87.5391C239.156 88.3047 239.453 89.3698 239.453 90.7344V90.8672ZM238.008 90.7031C238.008 89.75 237.805 88.9974 237.398 88.4453C236.992 87.8932 236.435 87.6172 235.727 87.6172C234.852 87.6172 234.195 88.0052 233.758 88.7812V92.8203C234.19 93.5911 234.852 93.9766 235.742 93.9766C236.435 93.9766 236.984 93.7031 237.391 93.1562C237.802 92.6042 238.008 91.7865 238.008 90.7031ZM243.258 84.5V86.5469H244.836V87.6641H243.258V92.9062C243.258 93.2448 243.328 93.5 243.469 93.6719C243.609 93.8385 243.849 93.9219 244.188 93.9219C244.354 93.9219 244.583 93.8906 244.875 93.8281V95C244.495 95.1042 244.125 95.1562 243.766 95.1562C243.12 95.1562 242.633 94.9609 242.305 94.5703C241.977 94.1797 241.812 93.625 241.812 92.9062V87.6641H240.273V86.5469H241.812V84.5H243.258Z" fill="#F2F2F2"/>
<path d="M156.383 123.969C156.383 123.516 156.526 123.143 156.812 122.852C157.104 122.56 157.49 122.414 157.969 122.414C158.443 122.414 158.828 122.557 159.125 122.844C159.422 123.125 159.57 123.508 159.57 123.992V124.281C159.57 124.734 159.427 125.104 159.141 125.391C158.854 125.677 158.466 125.82 157.977 125.82C157.492 125.82 157.104 125.677 156.812 125.391C156.526 125.099 156.383 124.724 156.383 124.266V123.969ZM172.82 125.547V130H171.32V118.625H175.516C176.76 118.625 177.734 118.943 178.438 119.578C179.146 120.214 179.5 121.055 179.5 122.102C179.5 123.206 179.154 124.057 178.461 124.656C177.773 125.25 176.786 125.547 175.5 125.547H172.82ZM172.82 124.32H175.516C176.318 124.32 176.932 124.133 177.359 123.758C177.786 123.378 178 122.831 178 122.117C178 121.44 177.786 120.898 177.359 120.492C176.932 120.086 176.346 119.875 175.602 119.859H172.82V124.32ZM190.156 130H188.648V124.742H182.914V130H181.414V118.625H182.914V123.516H188.648V118.625H190.156V130ZM194.32 125.547V130H192.82V118.625H197.016C198.26 118.625 199.234 118.943 199.938 119.578C200.646 120.214 201 121.055 201 122.102C201 123.206 200.654 124.057 199.961 124.656C199.273 125.25 198.286 125.547 197 125.547H194.32ZM194.32 124.32H197.016C197.818 124.32 198.432 124.133 198.859 123.758C199.286 123.378 199.5 122.831 199.5 122.117C199.5 121.44 199.286 120.898 198.859 120.492C198.432 120.086 197.846 119.875 197.102 119.859H194.32V124.32Z" fill="#F2F2F2"/>
<path d="M156.383 158.969C156.383 158.516 156.526 158.143 156.812 157.852C157.104 157.56 157.49 157.414 157.969 157.414C158.443 157.414 158.828 157.557 159.125 157.844C159.422 158.125 159.57 158.508 159.57 158.992V159.281C159.57 159.734 159.427 160.104 159.141 160.391C158.854 160.677 158.466 160.82 157.977 160.82C157.492 160.82 157.104 160.677 156.812 160.391C156.526 160.099 156.383 159.724 156.383 159.266V158.969ZM180.062 165H178.555L172.828 156.234V165H171.32V153.625H172.828L178.57 162.43V153.625H180.062V165ZM182.117 160.695C182.117 159.867 182.279 159.122 182.602 158.461C182.93 157.799 183.383 157.289 183.961 156.93C184.544 156.57 185.208 156.391 185.953 156.391C187.104 156.391 188.034 156.789 188.742 157.586C189.456 158.383 189.812 159.443 189.812 160.766V160.867C189.812 161.69 189.654 162.43 189.336 163.086C189.023 163.737 188.573 164.245 187.984 164.609C187.401 164.974 186.729 165.156 185.969 165.156C184.823 165.156 183.893 164.758 183.18 163.961C182.471 163.164 182.117 162.109 182.117 160.797V160.695ZM183.57 160.867C183.57 161.805 183.786 162.557 184.219 163.125C184.656 163.693 185.24 163.977 185.969 163.977C186.703 163.977 187.286 163.69 187.719 163.117C188.151 162.539 188.367 161.732 188.367 160.695C188.367 159.768 188.146 159.018 187.703 158.445C187.266 157.867 186.682 157.578 185.953 157.578C185.24 157.578 184.664 157.862 184.227 158.43C183.789 158.997 183.57 159.81 183.57 160.867ZM191.273 160.703C191.273 159.406 191.581 158.365 192.195 157.578C192.81 156.786 193.615 156.391 194.609 156.391C195.599 156.391 196.383 156.729 196.961 157.406V153H198.406V165H197.078L197.008 164.094C196.43 164.802 195.625 165.156 194.594 165.156C193.615 165.156 192.815 164.755 192.195 163.953C191.581 163.151 191.273 162.104 191.273 160.812V160.703ZM192.719 160.867C192.719 161.826 192.917 162.576 193.312 163.117C193.708 163.659 194.255 163.93 194.953 163.93C195.87 163.93 196.539 163.518 196.961 162.695V158.812C196.529 158.016 195.865 157.617 194.969 157.617C194.26 157.617 193.708 157.891 193.312 158.438C192.917 158.984 192.719 159.794 192.719 160.867ZM204.164 165.156C203.018 165.156 202.086 164.781 201.367 164.031C200.648 163.276 200.289 162.268 200.289 161.008V160.742C200.289 159.904 200.448 159.156 200.766 158.5C201.089 157.839 201.536 157.323 202.109 156.953C202.688 156.578 203.312 156.391 203.984 156.391C205.083 156.391 205.938 156.753 206.547 157.477C207.156 158.201 207.461 159.237 207.461 160.586V161.188H201.734C201.755 162.021 201.997 162.695 202.461 163.211C202.93 163.721 203.523 163.977 204.242 163.977C204.753 163.977 205.185 163.872 205.539 163.664C205.893 163.456 206.203 163.18 206.469 162.836L207.352 163.523C206.643 164.612 205.581 165.156 204.164 165.156ZM203.984 157.578C203.401 157.578 202.911 157.792 202.516 158.219C202.12 158.641 201.875 159.234 201.781 160H206.016V159.891C205.974 159.156 205.776 158.589 205.422 158.188C205.068 157.781 204.589 157.578 203.984 157.578Z" fill="#F2F2F2"/>
<path d="M272.383 53.9688C272.383 53.5156 272.526 53.1432 272.812 52.8516C273.104 52.5599 273.49 52.4141 273.969 52.4141C274.443 52.4141 274.828 52.5573 275.125 52.8438C275.422 53.125 275.57 53.5078 275.57 53.9922V54.2812C275.57 54.7344 275.427 55.1042 275.141 55.3906C274.854 55.6771 274.466 55.8203 273.977 55.8203C273.492 55.8203 273.104 55.6771 272.812 55.3906C272.526 55.099 272.383 54.724 272.383 54.2656V53.9688ZM289.258 48.625L292.977 57.9062L296.695 48.625H298.641V60H297.141V55.5703L297.281 50.7891L293.547 60H292.398L288.672 50.8125L288.82 55.5703V60H287.32V48.625H289.258ZM303.828 57.8828L305.797 51.5469H307.344L303.945 61.3047C303.419 62.7109 302.583 63.4141 301.438 63.4141L301.164 63.3906L300.625 63.2891V62.1172L301.016 62.1484C301.505 62.1484 301.885 62.0495 302.156 61.8516C302.432 61.6536 302.659 61.2917 302.836 60.7656L303.156 59.9062L300.141 51.5469H301.719L303.828 57.8828ZM312.219 54.9297C310.932 54.5599 309.995 54.1068 309.406 53.5703C308.823 53.0286 308.531 52.362 308.531 51.5703C308.531 50.6745 308.888 49.9349 309.602 49.3516C310.32 48.763 311.253 48.4688 312.398 48.4688C313.18 48.4688 313.875 48.6198 314.484 48.9219C315.099 49.224 315.573 49.6406 315.906 50.1719C316.245 50.7031 316.414 51.2839 316.414 51.9141H314.906C314.906 51.2266 314.688 50.6875 314.25 50.2969C313.812 49.901 313.195 49.7031 312.398 49.7031C311.659 49.7031 311.081 49.8672 310.664 50.1953C310.253 50.5182 310.047 50.9688 310.047 51.5469C310.047 52.0104 310.242 52.4036 310.633 52.7266C311.029 53.0443 311.698 53.3359 312.641 53.6016C313.589 53.8672 314.328 54.1615 314.859 54.4844C315.396 54.8021 315.792 55.1745 316.047 55.6016C316.307 56.0286 316.438 56.5312 316.438 57.1094C316.438 58.0312 316.078 58.7708 315.359 59.3281C314.641 59.8802 313.68 60.1562 312.477 60.1562C311.695 60.1562 310.966 60.0078 310.289 59.7109C309.612 59.4089 309.089 58.9974 308.719 58.4766C308.354 57.9557 308.172 57.3646 308.172 56.7031H309.68C309.68 57.3906 309.932 57.9349 310.438 58.3359C310.948 58.7318 311.628 58.9297 312.477 58.9297C313.268 58.9297 313.875 58.7682 314.297 58.4453C314.719 58.1224 314.93 57.6823 314.93 57.125C314.93 56.5677 314.734 56.138 314.344 55.8359C313.953 55.5286 313.245 55.2266 312.219 54.9297ZM317.789 55.7031C317.789 54.375 318.094 53.3255 318.703 52.5547C319.312 51.7786 320.13 51.3906 321.156 51.3906C322.156 51.3906 322.945 51.7266 323.523 52.3984L323.586 51.5469H324.914V63.25H323.469V59.2188C322.885 59.8438 322.109 60.1562 321.141 60.1562C320.12 60.1562 319.305 59.7604 318.695 58.9688C318.091 58.1719 317.789 57.1172 317.789 55.8047V55.7031ZM319.234 55.8672C319.234 56.8359 319.438 57.5964 319.844 58.1484C320.255 58.7005 320.807 58.9766 321.5 58.9766C322.359 58.9766 323.016 58.5964 323.469 57.8359V53.6953C323.01 52.9505 322.359 52.5781 321.516 52.5781C320.818 52.5781 320.263 52.8568 319.852 53.4141C319.44 53.9661 319.234 54.7839 319.234 55.8672ZM328.805 60H327.359V48H328.805V60Z" fill="#F2F2F2"/>
<path d="M272.383 88.9688C272.383 88.5156 272.526 88.1432 272.812 87.8516C273.104 87.5599 273.49 87.4141 273.969 87.4141C274.443 87.4141 274.828 87.5573 275.125 87.8438C275.422 88.125 275.57 88.5078 275.57 88.9922V89.2812C275.57 89.7344 275.427 90.1042 275.141 90.3906C274.854 90.6771 274.466 90.8203 273.977 90.8203C273.492 90.8203 273.104 90.6771 272.812 90.3906C272.526 90.099 272.383 89.724 272.383 89.2656V88.9688ZM288.82 90.5469V95H287.32V83.625H291.516C292.76 83.625 293.734 83.9427 294.438 84.5781C295.146 85.2135 295.5 86.0547 295.5 87.1016C295.5 88.2057 295.154 89.0573 294.461 89.6562C293.773 90.25 292.786 90.5469 291.5 90.5469H288.82ZM288.82 89.3203H291.516C292.318 89.3203 292.932 89.1328 293.359 88.7578C293.786 88.3776 294 87.8307 294 87.1172C294 86.4401 293.786 85.8984 293.359 85.4922C292.932 85.0859 292.346 84.875 291.602 84.8594H288.82V89.3203ZM300.078 92.8828L302.047 86.5469H303.594L300.195 96.3047C299.669 97.7109 298.833 98.4141 297.688 98.4141L297.414 98.3906L296.875 98.2891V97.1172L297.266 97.1484C297.755 97.1484 298.135 97.0495 298.406 96.8516C298.682 96.6536 298.909 96.2917 299.086 95.7656L299.406 94.9062L296.391 86.5469H297.969L300.078 92.8828ZM306.852 84.5V86.5469H308.43V87.6641H306.852V92.9062C306.852 93.2448 306.922 93.5 307.062 93.6719C307.203 93.8385 307.443 93.9219 307.781 93.9219C307.948 93.9219 308.177 93.8906 308.469 93.8281V95C308.089 95.1042 307.719 95.1562 307.359 95.1562C306.714 95.1562 306.227 94.9609 305.898 94.5703C305.57 94.1797 305.406 93.625 305.406 92.9062V87.6641H303.867V86.5469H305.406V84.5H306.852ZM311.57 87.5703C312.211 86.7839 313.044 86.3906 314.07 86.3906C315.857 86.3906 316.758 87.3984 316.773 89.4141V95H315.328V89.4062C315.323 88.7969 315.182 88.3464 314.906 88.0547C314.635 87.763 314.211 87.6172 313.633 87.6172C313.164 87.6172 312.753 87.7422 312.398 87.9922C312.044 88.2422 311.768 88.5703 311.57 88.9766V95H310.125V83H311.57V87.5703ZM318.555 90.6953C318.555 89.8672 318.716 89.1224 319.039 88.4609C319.367 87.7995 319.82 87.2891 320.398 86.9297C320.982 86.5703 321.646 86.3906 322.391 86.3906C323.542 86.3906 324.471 86.7891 325.18 87.5859C325.893 88.3828 326.25 89.4427 326.25 90.7656V90.8672C326.25 91.6901 326.091 92.4297 325.773 93.0859C325.461 93.737 325.01 94.2448 324.422 94.6094C323.839 94.974 323.167 95.1562 322.406 95.1562C321.26 95.1562 320.331 94.7578 319.617 93.9609C318.909 93.1641 318.555 92.1094 318.555 90.7969V90.6953ZM320.008 90.8672C320.008 91.8047 320.224 92.5573 320.656 93.125C321.094 93.6927 321.677 93.9766 322.406 93.9766C323.141 93.9766 323.724 93.6901 324.156 93.1172C324.589 92.5391 324.805 91.7318 324.805 90.6953C324.805 89.7682 324.583 89.0182 324.141 88.4453C323.703 87.8672 323.12 87.5781 322.391 87.5781C321.677 87.5781 321.102 87.862 320.664 88.4297C320.227 88.9974 320.008 89.8099 320.008 90.8672ZM329.43 86.5469L329.477 87.6094C330.122 86.7969 330.966 86.3906 332.008 86.3906C333.794 86.3906 334.695 87.3984 334.711 89.4141V95H333.266V89.4062C333.26 88.7969 333.12 88.3464 332.844 88.0547C332.573 87.763 332.148 87.6172 331.57 87.6172C331.102 87.6172 330.69 87.7422 330.336 87.9922C329.982 88.2422 329.706 88.5703 329.508 88.9766V95H328.062V86.5469H329.43Z" fill="#F2F2F2"/>
<path d="M272.383 123.969C272.383 123.516 272.526 123.143 272.812 122.852C273.104 122.56 273.49 122.414 273.969 122.414C274.443 122.414 274.828 122.557 275.125 122.844C275.422 123.125 275.57 123.508 275.57 123.992V124.281C275.57 124.734 275.427 125.104 275.141 125.391C274.854 125.677 274.466 125.82 273.977 125.82C273.492 125.82 273.104 125.677 272.812 125.391C272.526 125.099 272.383 124.724 272.383 124.266V123.969ZM289.773 126.414L289.992 127.914L290.312 126.562L292.562 118.625H293.828L296.023 126.562L296.336 127.938L296.578 126.406L298.344 118.625H299.852L297.094 130H295.727L293.383 121.711L293.203 120.844L293.023 121.711L290.594 130H289.227L286.477 118.625H287.977L289.773 126.414ZM304.555 130.156C303.409 130.156 302.477 129.781 301.758 129.031C301.039 128.276 300.68 127.268 300.68 126.008V125.742C300.68 124.904 300.839 124.156 301.156 123.5C301.479 122.839 301.927 122.323 302.5 121.953C303.078 121.578 303.703 121.391 304.375 121.391C305.474 121.391 306.328 121.753 306.938 122.477C307.547 123.201 307.852 124.237 307.852 125.586V126.188H302.125C302.146 127.021 302.388 127.695 302.852 128.211C303.32 128.721 303.914 128.977 304.633 128.977C305.143 128.977 305.576 128.872 305.93 128.664C306.284 128.456 306.594 128.18 306.859 127.836L307.742 128.523C307.034 129.612 305.971 130.156 304.555 130.156ZM304.375 122.578C303.792 122.578 303.302 122.792 302.906 123.219C302.51 123.641 302.266 124.234 302.172 125H306.406V124.891C306.365 124.156 306.167 123.589 305.812 123.188C305.458 122.781 304.979 122.578 304.375 122.578ZM316.688 125.867C316.688 127.159 316.391 128.198 315.797 128.984C315.203 129.766 314.406 130.156 313.406 130.156C312.339 130.156 311.513 129.779 310.93 129.023L310.859 130H309.531V118H310.977V122.477C311.56 121.753 312.365 121.391 313.391 121.391C314.417 121.391 315.221 121.779 315.805 122.555C316.393 123.331 316.688 124.393 316.688 125.742V125.867ZM315.242 125.703C315.242 124.719 315.052 123.958 314.672 123.422C314.292 122.885 313.745 122.617 313.031 122.617C312.078 122.617 311.393 123.06 310.977 123.945V127.602C311.419 128.487 312.109 128.93 313.047 128.93C313.74 128.93 314.279 128.661 314.664 128.125C315.049 127.589 315.242 126.781 315.242 125.703ZM320.242 125.547V130H318.742V118.625H322.938C324.182 118.625 325.156 118.943 325.859 119.578C326.568 120.214 326.922 121.055 326.922 122.102C326.922 123.206 326.576 124.057 325.883 124.656C325.195 125.25 324.208 125.547 322.922 125.547H320.242ZM320.242 124.32H322.938C323.74 124.32 324.354 124.133 324.781 123.758C325.208 123.378 325.422 122.831 325.422 122.117C325.422 121.44 325.208 120.898 324.781 120.492C324.354 120.086 323.768 119.875 323.023 119.859H320.242V124.32ZM333.734 130C333.651 129.833 333.583 129.536 333.531 129.109C332.859 129.807 332.057 130.156 331.125 130.156C330.292 130.156 329.607 129.922 329.07 129.453C328.539 128.979 328.273 128.38 328.273 127.656C328.273 126.776 328.607 126.094 329.273 125.609C329.945 125.12 330.888 124.875 332.102 124.875H333.508V124.211C333.508 123.706 333.357 123.305 333.055 123.008C332.753 122.706 332.307 122.555 331.719 122.555C331.203 122.555 330.771 122.685 330.422 122.945C330.073 123.206 329.898 123.521 329.898 123.891H328.445C328.445 123.469 328.594 123.062 328.891 122.672C329.193 122.276 329.599 121.964 330.109 121.734C330.625 121.505 331.19 121.391 331.805 121.391C332.779 121.391 333.542 121.635 334.094 122.125C334.646 122.609 334.932 123.279 334.953 124.133V128.023C334.953 128.799 335.052 129.417 335.25 129.875V130H333.734ZM331.336 128.898C331.789 128.898 332.219 128.781 332.625 128.547C333.031 128.312 333.326 128.008 333.508 127.633V125.898H332.375C330.604 125.898 329.719 126.417 329.719 127.453C329.719 127.906 329.87 128.26 330.172 128.516C330.474 128.771 330.862 128.898 331.336 128.898ZM340.609 128.977C341.125 128.977 341.576 128.82 341.961 128.508C342.346 128.195 342.56 127.805 342.602 127.336H343.969C343.943 127.82 343.776 128.281 343.469 128.719C343.161 129.156 342.75 129.505 342.234 129.766C341.724 130.026 341.182 130.156 340.609 130.156C339.458 130.156 338.542 129.773 337.859 129.008C337.182 128.237 336.844 127.185 336.844 125.852V125.609C336.844 124.786 336.995 124.055 337.297 123.414C337.599 122.773 338.031 122.276 338.594 121.922C339.161 121.568 339.831 121.391 340.602 121.391C341.549 121.391 342.336 121.674 342.961 122.242C343.591 122.81 343.927 123.547 343.969 124.453H342.602C342.56 123.906 342.352 123.458 341.977 123.109C341.607 122.755 341.148 122.578 340.602 122.578C339.867 122.578 339.297 122.844 338.891 123.375C338.49 123.901 338.289 124.664 338.289 125.664V125.938C338.289 126.911 338.49 127.661 338.891 128.188C339.292 128.714 339.865 128.977 340.609 128.977ZM347.953 126.086L347.047 127.031V130H345.602V118H347.047V125.258L347.82 124.328L350.453 121.547H352.211L348.922 125.078L352.594 130H350.898L347.953 126.086Z" fill="#F2F2F2"/>
<path d="M272.383 158.969C272.383 158.516 272.526 158.143 272.812 157.852C273.104 157.56 273.49 157.414 273.969 157.414C274.443 157.414 274.828 157.557 275.125 157.844C275.422 158.125 275.57 158.508 275.57 158.992V159.281C275.57 159.734 275.427 160.104 275.141 160.391C274.854 160.677 274.466 160.82 273.977 160.82C273.492 160.82 273.104 160.677 272.812 160.391C272.526 160.099 272.383 159.724 272.383 159.266V158.969ZM291.492 160.398H288.82V165H287.312V153.625H291.078C292.359 153.625 293.344 153.917 294.031 154.5C294.724 155.083 295.07 155.932 295.07 157.047C295.07 157.755 294.878 158.372 294.492 158.898C294.112 159.424 293.581 159.818 292.898 160.078L295.57 164.906V165H293.961L291.492 160.398ZM288.82 159.172H291.125C291.87 159.172 292.461 158.979 292.898 158.594C293.341 158.208 293.562 157.693 293.562 157.047C293.562 156.344 293.352 155.805 292.93 155.43C292.513 155.055 291.909 154.865 291.117 154.859H288.82V159.172ZM300.461 165.156C299.315 165.156 298.383 164.781 297.664 164.031C296.945 163.276 296.586 162.268 296.586 161.008V160.742C296.586 159.904 296.745 159.156 297.062 158.5C297.385 157.839 297.833 157.323 298.406 156.953C298.984 156.578 299.609 156.391 300.281 156.391C301.38 156.391 302.234 156.753 302.844 157.477C303.453 158.201 303.758 159.237 303.758 160.586V161.188H298.031C298.052 162.021 298.294 162.695 298.758 163.211C299.227 163.721 299.82 163.977 300.539 163.977C301.049 163.977 301.482 163.872 301.836 163.664C302.19 163.456 302.5 163.18 302.766 162.836L303.648 163.523C302.94 164.612 301.878 165.156 300.461 165.156ZM300.281 157.578C299.698 157.578 299.208 157.792 298.812 158.219C298.417 158.641 298.172 159.234 298.078 160H302.312V159.891C302.271 159.156 302.073 158.589 301.719 158.188C301.365 157.781 300.885 157.578 300.281 157.578ZM310.656 165C310.573 164.833 310.505 164.536 310.453 164.109C309.781 164.807 308.979 165.156 308.047 165.156C307.214 165.156 306.529 164.922 305.992 164.453C305.461 163.979 305.195 163.38 305.195 162.656C305.195 161.776 305.529 161.094 306.195 160.609C306.867 160.12 307.81 159.875 309.023 159.875H310.43V159.211C310.43 158.706 310.279 158.305 309.977 158.008C309.674 157.706 309.229 157.555 308.641 157.555C308.125 157.555 307.693 157.685 307.344 157.945C306.995 158.206 306.82 158.521 306.82 158.891H305.367C305.367 158.469 305.516 158.062 305.812 157.672C306.115 157.276 306.521 156.964 307.031 156.734C307.547 156.505 308.112 156.391 308.727 156.391C309.701 156.391 310.464 156.635 311.016 157.125C311.568 157.609 311.854 158.279 311.875 159.133V163.023C311.875 163.799 311.974 164.417 312.172 164.875V165H310.656ZM308.258 163.898C308.711 163.898 309.141 163.781 309.547 163.547C309.953 163.312 310.247 163.008 310.43 162.633V160.898H309.297C307.526 160.898 306.641 161.417 306.641 162.453C306.641 162.906 306.792 163.26 307.094 163.516C307.396 163.771 307.784 163.898 308.258 163.898ZM317.531 163.977C318.047 163.977 318.497 163.82 318.883 163.508C319.268 163.195 319.482 162.805 319.523 162.336H320.891C320.865 162.82 320.698 163.281 320.391 163.719C320.083 164.156 319.672 164.505 319.156 164.766C318.646 165.026 318.104 165.156 317.531 165.156C316.38 165.156 315.464 164.773 314.781 164.008C314.104 163.237 313.766 162.185 313.766 160.852V160.609C313.766 159.786 313.917 159.055 314.219 158.414C314.521 157.773 314.953 157.276 315.516 156.922C316.083 156.568 316.753 156.391 317.523 156.391C318.471 156.391 319.258 156.674 319.883 157.242C320.513 157.81 320.849 158.547 320.891 159.453H319.523C319.482 158.906 319.273 158.458 318.898 158.109C318.529 157.755 318.07 157.578 317.523 157.578C316.789 157.578 316.219 157.844 315.812 158.375C315.411 158.901 315.211 159.664 315.211 160.664V160.938C315.211 161.911 315.411 162.661 315.812 163.188C316.214 163.714 316.786 163.977 317.531 163.977ZM324.477 154.5V156.547H326.055V157.664H324.477V162.906C324.477 163.245 324.547 163.5 324.688 163.672C324.828 163.839 325.068 163.922 325.406 163.922C325.573 163.922 325.802 163.891 326.094 163.828V165C325.714 165.104 325.344 165.156 324.984 165.156C324.339 165.156 323.852 164.961 323.523 164.57C323.195 164.18 323.031 163.625 323.031 162.906V157.664H321.492V156.547H323.031V154.5H324.477Z" fill="#F2F2F2"/>
<path d="M379.383 53.9688C379.383 53.5156 379.526 53.1432 379.812 52.8516C380.104 52.5599 380.49 52.4141 380.969 52.4141C381.443 52.4141 381.828 52.5573 382.125 52.8438C382.422 53.125 382.57 53.5078 382.57 53.9922V54.2812C382.57 54.7344 382.427 55.1042 382.141 55.3906C381.854 55.6771 381.466 55.8203 380.977 55.8203C380.492 55.8203 380.104 55.6771 379.812 55.3906C379.526 55.099 379.383 54.724 379.383 54.2656V53.9688ZM403.062 60H401.555L395.828 51.2344V60H394.32V48.625H395.828L401.57 57.4297V48.625H403.062V60ZM409.008 60.1562C407.862 60.1562 406.93 59.7812 406.211 59.0312C405.492 58.276 405.133 57.2682 405.133 56.0078V55.7422C405.133 54.9036 405.292 54.1562 405.609 53.5C405.932 52.8385 406.38 52.3229 406.953 51.9531C407.531 51.5781 408.156 51.3906 408.828 51.3906C409.927 51.3906 410.781 51.7526 411.391 52.4766C412 53.2005 412.305 54.237 412.305 55.5859V56.1875H406.578C406.599 57.0208 406.841 57.6953 407.305 58.2109C407.773 58.7214 408.367 58.9766 409.086 58.9766C409.596 58.9766 410.029 58.8724 410.383 58.6641C410.737 58.4557 411.047 58.1797 411.312 57.8359L412.195 58.5234C411.487 59.612 410.424 60.1562 409.008 60.1562ZM408.828 52.5781C408.245 52.5781 407.755 52.7917 407.359 53.2188C406.964 53.6406 406.719 54.2344 406.625 55H410.859V54.8906C410.818 54.1562 410.62 53.5885 410.266 53.1875C409.911 52.7812 409.432 52.5781 408.828 52.5781ZM416.82 54.6328L418.695 51.5469H420.383L417.617 55.7266L420.469 60H418.797L416.844 56.8359L414.891 60H413.211L416.062 55.7266L413.297 51.5469H414.969L416.82 54.6328ZM423.883 49.5V51.5469H425.461V52.6641H423.883V57.9062C423.883 58.2448 423.953 58.5 424.094 58.6719C424.234 58.8385 424.474 58.9219 424.812 58.9219C424.979 58.9219 425.208 58.8906 425.5 58.8281V60C425.12 60.1042 424.75 60.1562 424.391 60.1562C423.745 60.1562 423.258 59.9609 422.93 59.5703C422.602 59.1797 422.438 58.625 422.438 57.9062V52.6641H420.898V51.5469H422.438V49.5H423.883Z" fill="#F2F2F2"/>
</svg>
